<?xml version="1.0" encoding="UTF-8" standalone="no"?>
<svg width="32px" height="32px" viewBox="0 0 32 32" version="1.1" xmlns="http://www.w3.org/2000/svg" xmlns:xlink="http://www.w3.org/1999/xlink" xmlns:sketch="http://www.bohemiancoding.com/sketch/ns">
    <!-- Generator: Sketch 3.5.2 (25235) - http://www.bohemiancoding.com/sketch -->
    <title>pinterest_L Copy</title>
    <desc>Created with Sketch.</desc>
    <defs></defs>
    <g id="Page-1" stroke="none" stroke-width="1" fill="none" fill-rule="evenodd" sketch:type="MSPage">
        <g id="Tablet" sketch:type="MSArtboardGroup" transform="translate(-262.000000, -434.000000)" fill-opacity="0.5" fill="#000000">
            <path d="M278,466 C286.836556,466 294,458.836556 294,450 C294,441.163444 286.836556,434 278,434 C269.163444,434 262,441.163444 262,450 C262,458.836556 269.163444,466 278,466 Z M278,464.72 C286.129632,464.72 292.72,458.129632 292.72,450 C292.72,441.870368 286.129632,435.28 278,435.28 C269.870368,435.28 263.28,441.870368 263.28,450 C263.28,458.129632 269.870368,464.72 278,464.72 Z M270.32,447.262046 C270.32,449.328472 271.100971,451.165912 272.774955,451.850644 C273.04896,451.962914 273.296341,451.855091 273.375104,451.549406 C273.430571,451.339318 273.561472,450.806872 273.620267,450.585667 C273.700139,450.285541 273.669077,450.178829 273.447211,449.917608 C272.964651,449.346257 272.656256,448.608168 272.656256,447.561061 C272.656256,444.526451 274.921515,441.809752 278.557909,441.809752 C281.776085,441.809752 283.544363,443.780581 283.544363,446.411688 C283.544363,449.874257 282.015701,452.797709 279.744896,452.797709 C278.49024,452.797709 277.551744,451.758383 277.853483,450.483402 C278.212907,448.962762 278.910677,447.32096 278.910677,446.221608 C278.910677,445.240084 278.383744,444.418627 277.294379,444.418627 C276.013099,444.418627 274.982528,445.749187 274.982528,447.527714 C274.982528,448.661524 275.365248,449.428514 275.365248,449.428514 C275.365248,449.428514 274.052907,454.997524 273.823275,455.973491 C273.36512,457.915419 273.754496,460.296421 273.787776,460.536522 C273.807744,460.678804 273.989675,460.712152 274.072875,460.60544 C274.190464,460.450931 275.716907,458.562358 276.236075,456.676008 C276.383616,456.141339 277.080277,453.373507 277.080277,453.373507 C277.496277,454.169398 278.712107,454.871916 280.006699,454.871916 C283.860523,454.871916 286.474112,451.351545 286.474112,446.639562 C286.474112,443.076952 283.463381,439.76 278.886272,439.76 C273.192064,439.76 270.32,443.851722 270.32,447.262046 Z" id="pinterest_L-Copy" sketch:type="MSShapeGroup"></path>
        </g>
    </g>
</svg>